/* XPM */
static char *e1d34d6718a546d6ec364f084ba25c3cl9KrsuptUIvSrUVm[] = {
/* columns rows colors chars-per-pixel */
"32 32 15 1 ",
"  c black",
". c #101010",
"X c #202020",
"o c gray19",
"O c #68541F",
"+ c gray25",
"@ c #505050",
"# c #606060",
"$ c gray44",
"% c #807020",
"& c #AA8834",
"* c #C0A040",
"= c #F2C44D",
"- c #F8E060",
"; c #808080",
/* pixels */
"..X...X..XX...X.XX..X.X....X.XX.",
".$;;$.###;$#;OOO$;$;;##X$;$#$$;#",
"X#++oX@+o@XOO*&*OOooo+o.@o+@++oo",
".$ooo.#oo+O=*&*=*=Oo+@o.@+@+oXo+",
".;o+X.#+oO=*&*=*=-=O@o     .X..X",
".;X@o.@oO=*&*=*=-=*=%        @#@",
"X#o++X..%*&*=*=-=*=*O        o+@",
".$ooXXo.O%*=*=-=*=*%O        @+o",
".;@+o++X%O&*=-=*=*%O%       ++@o",
".#o+o+o.O%&&*=*=&&O%O       @+oX",
".$oX+oX.%O%%=**&%O%O%      X+oo+",
"X.XX.XX.OOO&*&&%&&O%O      +XoXo",
".##@#@OO*&*OO**&%O%O%      ..X..",
".$+@oO=*&*=*=O&%&&O%O      #@@#@",
".;+oO=*&*=*=-=O&%O%OOO       +oo",
"X$oO=*&*=*=-=*=%&OO*&*OO       +",
".;+%*&*=*=-=*=*OO=*&*=*=O      @",
"X$+O%*=*=-=*=*%O=*&*=*=-=O     o",
".#+%O&*=-=*=*%O%*&*=*=-=*=%    .",
".$oO%&&*=*=&&O%O&*=*=-=*=*O   @@",
".#+%O%%=**&%O%O%*=*=-=*=*%O   ++",
".;+O%&&*&&%&&O%O&*=-=*=*%O%   +@",
".$+%O%%=**&%O%O%&&*=*=&&O%O  +@o",
".;@O%&&*&&%&&O%O%%=**&%O%O%  o+X",
".$o%O%%=**&%O%O%&&*&&%&&O%O  +o+",
"X#oO%&&*&&%&&O%O&&*&&%&&O%O Xo+o",
".X.%O%%=**&%O%O%%%=**&%O%O% oo+o",
".#@ %&&*&&%&&O%O&&*&&%&&O%  ++oX",
".$o  %%=**&%O%O %%=**&%O%  X..X.",
"X;@+  &*&&%&&    &*&&%&&  @@#@#@",
"X$+o+   **&   .@   **&   +oo+oo+",
".;o+@.@     oo.@oo     .@o+Xo@+o"
};
