/* XPM */
static char *ad87bd7f0e034aeafd9c413d2d1fce5ewJgD0noE8NNYSzgo[] = {
/* columns rows colors chars-per-pixel */
"32 32 27 1 ",
"  c black",
". c #101010",
"X c #202020",
"o c gray19",
"O c #600000",
"+ c gray25",
"@ c #505050",
"# c #7F5A48",
"$ c #606060",
"% c gray44",
"& c #800000",
"* c #A00000",
"= c #A5765E",
"- c #808000",
"; c #A0A000",
": c #C0C000",
"> c #E0E000",
", c yellow",
"< c #CA8F72",
"1 c #F2C44D",
"2 c #808080",
"3 c #909090",
"4 c gray69",
"5 c #E5A282",
"6 c #FFB691",
"7 c #FFD3AF",
"8 c gray88",
/* pixels */
"..X...X..XX...X.XX..X.X....X.XX.",
".%22%.$$$2%$2%X$%2%22$$X%2%$%%2$",
"X$++oX@+o@Xoo+X@o+ooo+o.@o+@++oo",
".%ooo.$oo+o+@o.,o+@o+@o.@+@+oXo+",
".2o+X.$+o@+o+oX,+ooX@oo..X..X..X",
".2X@o.@o+o@+oX>,;X++o+o+o.@@$@$@",
"X$o++X....X...>,:ooooX+@+.@o+o+@",
".%ooXXo.@@$@@>,>:;X+oo+++.$++@+o",
".2@+o++X$+o++>,>:;o+@@o@oX$@++@o",
".$o+o+o.@oo@O,,>>:&o++o+o.$o@+oX",
".%oX+oX.$+>>:&&&&&:>>++++.@X+oo+",
"X.XX.XX.@+@O>>>>>>:OoXo+oX@+XoXo",
".$$@$@@X$X+&===<<<<&X....X...X..",
".%+@ooo6665&=88<<88&5666$@$$@@$@",
".2+oo@X.$5=<=8+<7+85=6XooX+@o+oo",
"X%o+o@oX@++&=<=<77<&++o++o+++@++",
".2+++o+.@+>:#==<76=#:>+XoXoo+o+@",
"X%+@oXo.+>:;-#####=:;:>o++o+oXoo",
".$++oo5<>;;-;:>;;;>;--:>...X..X.",
".%oo++=<:--$;:>,>,:++o-:.@@$@$@@",
".$++oo=<--@+o;:,>,:oX++<5@+ooX++",
".2+@oX+@XX$o+;:,>::Xo+o<=$o++o+@",
".%+oo+o+X.@oo&&11&&o+oXoX$o@o+@o",
".2@+@+o+o.$+:>,->,:;.X...$X+oo+X",
".%oo++XooX@:>,,>>>,:;.@$   o++o+",
"X$oXXoooX.@+43,,>>34+.      Xo+o",
".X...X.X..X.43%  %34         o+o",
".$@$@.@@$$@**&O   &&*        +oX",
".%oX+X@o*o+o&*O   &*    *   ..X.",
"X2@+o.$+&*@O&*O   O&*  &O  @$@$@",
"X%+o+.$  OO&**O o OOO&&O  oo+oo+",
".2o+@.@o       @oo       o+Xo@+o"
};
