/* XPM */
static char *_abdb43fc5a7414289cd2dd7377a8c5cDWG2bo85ugWPq2ul[] = {
/* columns rows colors chars-per-pixel */
"32 32 11 1 ",
"  c #101010",
". c #202020",
"X c gray19",
"o c gray25",
"O c #505050",
"+ c #606060",
"@ c gray44",
"# c #808080",
"$ c #909090",
"% c #A0A0A0",
"& c gray69",
/* pixels */
"%&&%%$&$%#&%%%$%&&$$%$&&%%&%&%@O",
"&@+@++@##@@@@#@#@++@+@###@@@@@oX",
"&@   X X          .X.    XXX  O.",
"%@X+$$#O +$OX+O.O.+.$+O.#@@Oo.oX",
"%# $  O. #OXo X#.+.+.$oX $  OXOX",
"$# $ O.  O .O.#o.$+o. o.  $ +X+.",
"&@ #O.+O. O+#o.. #+o+OX #+.#+X+.",
"&+ O. o+O. X.#@+O.o    #O+. o.O.",
"%@    Xo@O @o O$o. #o.#Oo     o.",
"&+ .+@O o@ $ooX$o.#Oo.#o Ooo. O ",
"&+ X#OoO @o $o O. #o @O +@@O. o.",
"%+ +OoX. oO @Oo. +Oo ooX .$@O.O ",
"&@ $o   @O.O +O.X+o O #OXX.$o.O ",
"%@ $o $@oo.+X #o O X$ #Ooo ooXo.",
"$@ #O$@o.. ##O$oXoO$@o $$O@O.X+ ",
"$+ .o@..O+o..#$O XX...O+X.Oo. O.",
"&+ X..X  +$$ .X@XOo  Ooo  X.  O.",
"&O X@$$+o XX$+OXo#O@o.  OooO. O ",
"%@ +o.O++o +X O.Oo  @.@$$O @O.O ",
"%@ #o.  $O O @o.X#o @.Oo   $O.+X",
"%+ $@o.  $oX$Oo. #Oo #o   $@O.@X",
"&+  $@Oo $o $oX+X Oo #o +O@O. + ",
"&@ X#oo.+O.#Oo +o oOo.++ #@O. O ",
"%@ X X $Oo.oo +Oo  #o.o+O...  +.",
"%+X+X $@o.    oo.+o    ooO  O O.",
"&OX$@X@oX $$Oo..+O$$@O  ++ #@ OX",
"%+X#.$.X +  $@o o  O  O.  $ @XO.",
"%+ O. $. #O o @ .$ O #@. $  OX+X",
"&O oOO@o.o@@ $o .#O.$@o.$@@OoX@.",
"&OX  X   .X. ..  .X .X. ..X.. @.",
"@O+@@@++@@@++@@@+O+@@@+@+@+OO++ ",
"+  .  X.  .  . ..   ..  . ..XX  "
};
